<?xml version="1.0" encoding="UTF-8" standalone="no"?>
<!-- Created with Inkscape (http://www.inkscape.org/) -->

<svg
   xmlns:dc="http://purl.org/dc/elements/1.1/"
   xmlns:cc="http://creativecommons.org/ns#"
   xmlns:rdf="http://www.w3.org/1999/02/22-rdf-syntax-ns#"
   xmlns:svg="http://www.w3.org/2000/svg"
   xmlns="http://www.w3.org/2000/svg"
   xmlns:sodipodi="http://sodipodi.sourceforge.net/DTD/sodipodi-0.dtd"
   xmlns:inkscape="http://www.inkscape.org/namespaces/inkscape"
   version="1.1"
   id="svg869"
   width="500"
   height="140"
   viewBox="0 0 500 140"
   sodipodi:docname="weltenbummler_white.svg"
   inkscape:version="0.92.2 5c3e80d, 2017-08-06">
  <metadata
     id="metadata875">
    <rdf:RDF>
      <cc:Work
         rdf:about="">
        <dc:format>image/svg+xml</dc:format>
        <dc:type
           rdf:resource="http://purl.org/dc/dcmitype/StillImage" />
        <dc:title />
      </cc:Work>
    </rdf:RDF>
  </metadata>
  <defs
     id="defs873">
    <inkscape:path-effect
       effect="skeletal"
       id="path-effect942"
       is_visible="true"
       pattern="M 0,5 C 0,2.24 2.24,0 5,0 7.76,0 10,2.24 10,5 10,7.76 7.76,10 5,10 2.24,10 0,7.76 0,5 Z"
       copytype="single_stretched"
       prop_scale="1"
       scale_y_rel="false"
       spacing="0"
       normal_offset="0"
       tang_offset="0"
       prop_units="false"
       vertical_pattern="false"
       fuse_tolerance="0" />
    <inkscape:path-effect
       effect="powerstroke"
       id="path-effect932"
       is_visible="true"
       offset_points="0,0.3352941"
       sort_points="true"
       interpolator_type="CubicBezierJohan"
       interpolator_beta="0.2"
       start_linecap_type="zerowidth"
       linejoin_type="extrp_arc"
       miter_limit="4"
       end_linecap_type="zerowidth" />
    <inkscape:path-effect
       effect="powerstroke"
       id="path-effect924"
       is_visible="true"
       offset_points="0,0.34778368"
       sort_points="true"
       interpolator_type="CubicBezierJohan"
       interpolator_beta="0.2"
       start_linecap_type="zerowidth"
       linejoin_type="extrp_arc"
       miter_limit="4"
       end_linecap_type="zerowidth" />
    <inkscape:path-effect
       effect="powerstroke"
       id="path-effect920"
       is_visible="true"
       offset_points="0,0.3352941"
       sort_points="true"
       interpolator_type="CubicBezierJohan"
       interpolator_beta="0.2"
       start_linecap_type="zerowidth"
       linejoin_type="extrp_arc"
       miter_limit="4"
       end_linecap_type="zerowidth" />
    <inkscape:path-effect
       effect="powerstroke"
       id="path-effect916"
       is_visible="true"
       offset_points="0,0.3352941"
       sort_points="true"
       interpolator_type="CubicBezierJohan"
       interpolator_beta="0.2"
       start_linecap_type="zerowidth"
       linejoin_type="extrp_arc"
       miter_limit="4"
       end_linecap_type="zerowidth" />
    <inkscape:path-effect
       effect="powerstroke"
       id="path-effect912"
       is_visible="true"
       offset_points="0,0.3352941"
       sort_points="true"
       interpolator_type="CubicBezierJohan"
       interpolator_beta="0.2"
       start_linecap_type="zerowidth"
       linejoin_type="extrp_arc"
       miter_limit="4"
       end_linecap_type="zerowidth" />
    <inkscape:path-effect
       effect="skeletal"
       id="path-effect908"
       is_visible="true"
       pattern="M 0,5 C 0,2.24 2.24,0 5,0 7.76,0 10,2.24 10,5 10,7.76 7.76,10 5,10 2.24,10 0,7.76 0,5 Z"
       copytype="single_stretched"
       prop_scale="1"
       scale_y_rel="false"
       spacing="0"
       normal_offset="0"
       tang_offset="0"
       prop_units="false"
       vertical_pattern="false"
       fuse_tolerance="0" />
    <inkscape:path-effect
       effect="skeletal"
       id="path-effect902"
       is_visible="true"
       pattern="M 0,5 C 0,2.24 2.24,0 5,0 7.76,0 10,2.24 10,5 10,7.76 7.76,10 5,10 2.24,10 0,7.76 0,5 Z"
       copytype="single_stretched"
       prop_scale="1"
       scale_y_rel="false"
       spacing="0"
       normal_offset="0"
       tang_offset="0"
       prop_units="false"
       vertical_pattern="false"
       fuse_tolerance="0" />
  </defs>
  <sodipodi:namedview
     pagecolor="#ffffff"
     bordercolor="#666666"
     borderopacity="1"
     objecttolerance="10"
     gridtolerance="10"
     guidetolerance="10"
     inkscape:pageopacity="0"
     inkscape:pageshadow="2"
     inkscape:window-width="1280"
     inkscape:window-height="682"
     id="namedview871"
     showgrid="false"
     inkscape:zoom="1.5752214"
     inkscape:cx="300.32607"
     inkscape:cy="67.867167"
     inkscape:window-x="0"
     inkscape:window-y="0"
     inkscape:window-maximized="0"
     inkscape:current-layer="g936"
     inkscape:pagecheckerboard="true"
     scale-x="1"
     fit-margin-top="0"
     fit-margin-left="0"
     fit-margin-right="0"
     fit-margin-bottom="0"
     inkscape:measure-start="0,0"
     inkscape:measure-end="0,0">
    <inkscape:grid
       type="xygrid"
       id="grid879"
       originx="-2.7487872"
       originy="-2.7487887" />
  </sodipodi:namedview>
  <g
     id="g936"
     style="fill:none;stroke:#000000;stroke-width:3;stroke-linecap:round;stroke-linejoin:round;stroke-miterlimit:4;stroke-dasharray:none;stroke-opacity:1"
     transform="matrix(1.4912281,0,0,1.4912281,-5.2049273,6.5207107)">
    <path
       style="color:#000000;font-style:normal;font-variant:normal;font-weight:normal;font-stretch:normal;font-size:medium;line-height:normal;font-family:sans-serif;font-variant-ligatures:normal;font-variant-position:normal;font-variant-caps:normal;font-variant-numeric:normal;font-variant-alternates:normal;font-feature-settings:normal;text-indent:0;text-align:start;text-decoration:none;text-decoration-line:none;text-decoration-style:solid;text-decoration-color:#000000;letter-spacing:normal;word-spacing:normal;text-transform:none;writing-mode:lr-tb;direction:ltr;text-orientation:mixed;dominant-baseline:auto;baseline-shift:baseline;text-anchor:start;white-space:normal;shape-padding:0;clip-rule:nonzero;display:inline;overflow:visible;visibility:visible;opacity:1;isolation:auto;mix-blend-mode:normal;color-interpolation:sRGB;color-interpolation-filters:linearRGB;solid-color:#000000;solid-opacity:1;vector-effect:none;fill:#ffffff;fill-opacity:1;fill-rule:nonzero;stroke:none;stroke-width:3.80175996;stroke-linecap:round;stroke-linejoin:round;stroke-miterlimit:4;stroke-dasharray:none;stroke-dashoffset:0;stroke-opacity:1;color-rendering:auto;image-rendering:auto;shape-rendering:auto;text-rendering:auto;enable-background:accumulate"
       d="m 31.823529,38.376475 c -0.57192,-0.0036 -1.09611,0.318367 -1.351563,0.830078 l -5,10 c -0.95733,1.810051 5.277307,-1.592078 6.148793,-3.444989 l 0.193004,-2.531573 -0.193004,2.531573 c 0.871485,1.852911 7.492131,5.25504 6.534801,3.444989 l -5,-10 c -0.252309,-0.505418 -0.767148,-0.826249 -1.332031,-0.830078 z"
       id="path895"
       inkscape:connector-curvature="0"
       sodipodi:nodetypes="ccccccccc" />
    <path
       style="color:#000000;font-style:normal;font-variant:normal;font-weight:normal;font-stretch:normal;font-size:medium;line-height:normal;font-family:sans-serif;font-variant-ligatures:normal;font-variant-position:normal;font-variant-caps:normal;font-variant-numeric:normal;font-variant-alternates:normal;font-feature-settings:normal;text-indent:0;text-align:start;text-decoration:none;text-decoration-line:none;text-decoration-style:solid;text-decoration-color:#000000;letter-spacing:normal;word-spacing:normal;text-transform:none;writing-mode:lr-tb;direction:ltr;text-orientation:mixed;dominant-baseline:auto;baseline-shift:baseline;text-anchor:start;white-space:normal;shape-padding:0;clip-rule:nonzero;display:inline;overflow:visible;visibility:visible;opacity:1;isolation:auto;mix-blend-mode:normal;color-interpolation:sRGB;color-interpolation-filters:linearRGB;solid-color:#000000;solid-opacity:1;vector-effect:none;fill:#ffffff;fill-opacity:1;fill-rule:nonzero;stroke:none;stroke-width:3.80175996;stroke-linecap:round;stroke-linejoin:round;stroke-miterlimit:4;stroke-dasharray:none;stroke-dashoffset:0;stroke-opacity:1;color-rendering:auto;image-rendering:auto;shape-rendering:auto;text-rendering:auto;enable-background:accumulate"
       d="m 31.833293,50.287665 c -0.57192,-0.0036 -1.09611,0.318367 -1.351563,0.830078 l -5,10 c -0.95733,1.810051 5.510714,-2.175594 6.382199,-4.028505 l -0.0404,-1.948057 0.0404,1.948057 c 0.871486,1.852911 7.258725,5.838556 6.301395,4.028505 l -5,-10 c -0.252307,-0.505418 -0.767146,-0.826249 -1.332029,-0.830078 z"
       id="path897"
       inkscape:connector-curvature="0"
       sodipodi:nodetypes="ccccccccc" />
    <path
       style="color:#000000;font-style:normal;font-variant:normal;font-weight:normal;font-stretch:normal;font-size:medium;line-height:normal;font-family:sans-serif;font-variant-ligatures:normal;font-variant-position:normal;font-variant-caps:normal;font-variant-numeric:normal;font-variant-alternates:normal;font-feature-settings:normal;text-indent:0;text-align:start;text-decoration:none;text-decoration-line:none;text-decoration-style:solid;text-decoration-color:#000000;letter-spacing:normal;word-spacing:normal;text-transform:none;writing-mode:lr-tb;direction:ltr;text-orientation:mixed;dominant-baseline:auto;baseline-shift:baseline;text-anchor:start;white-space:normal;shape-padding:0;clip-rule:nonzero;display:inline;overflow:visible;visibility:visible;opacity:1;isolation:auto;mix-blend-mode:normal;color-interpolation:sRGB;color-interpolation-filters:linearRGB;solid-color:#000000;solid-opacity:1;vector-effect:none;fill:#ffffff;fill-opacity:1;fill-rule:nonzero;stroke:none;stroke-width:3.80175996;stroke-linecap:round;stroke-linejoin:round;stroke-miterlimit:4;stroke-dasharray:none;stroke-dashoffset:0;stroke-opacity:1;color-rendering:auto;image-rendering:auto;shape-rendering:auto;text-rendering:auto;enable-background:accumulate"
       d="m 256.40625,63.837891 c -3.26888,-0.21229 -6.06949,1.390288 -8.30469,2.771484 -2.733,1.688807 -5.72711,4.67169 -8.18164,7.283203 -2.45452,2.611513 -4.30273,4.84961 -4.30273,4.84961 a 1.9010701,1.9010701 0 1 0 2.92969,2.421874 c 0,0 1.7797,-2.151889 4.14453,-4.667968 2.36483,-2.516079 5.37957,-5.398789 7.4082,-6.652344 2.07632,-1.283018 4.27183,-2.327101 6.06055,-2.210938 1.66134,0.107892 3.56886,1.00311 4.42187,2.134766 -0.57485,-0.238663 -1.20329,-0.429156 -1.91015,-0.5 -1.67299,-0.167671 -4.14642,-0.306299 -5.8711,1.666016 -0.74735,0.854664 -1.26054,1.896934 -1.67578,3.044922 -0.41524,1.147988 -0.75351,2.298758 -0.52734,3.65039 0.30807,1.84109 1.49216,2.619312 2.39257,3.339844 0.90042,0.720532 1.74805,1.212891 1.74805,1.212891 a 1.9011859,1.9011859 0 1 0 1.91797,-3.283203 c 0,0 -0.64129,-0.376555 -1.29102,-0.896485 -0.64973,-0.51993 -1.07671,-1.353436 -1.01757,-1 -0.009,-0.05333 0.063,-0.93264 0.35156,-1.730469 0.28858,-0.797828 0.77254,-1.618262 0.96289,-1.835937 0.19434,-0.22224 1.40313,-0.507812 2.63086,-0.384766 0.17981,0.01802 1.26575,0.415538 2.07812,0.861328 0.81238,0.44579 1.44141,0.871094 1.44141,0.871094 a 1.9010701,1.9010701 0 0 0 2.96484,-1.472656 c 0,0 0.0517,-0.93011 -0.0273,-2.042969 -0.079,-1.112858 -0.10292,-2.409553 -1.07031,-3.726562 -1.74551,-2.376344 -4.58832,-3.528748 -7.27344,-3.703125 z"
       id="path954"
       inkscape:connector-curvature="0" />
    <path
       sodipodi:nodetypes="cssscsssc"
       inkscape:connector-curvature="0"
       id="path958"
       d="m 180.75223,79.95347 c 0,0 7.25789,-8.784003 12.01953,-11.726365 2.15576,-1.332107 4.6536,-2.656079 7.1824,-2.491852 2.18049,0.141606 4.56963,1.170544 5.86318,2.931591 0.90826,1.236501 0.7329,4.543967 0.7329,4.543967 0,0 -2.7879,-1.890807 -4.39739,-2.052114 -1.45036,-0.145359 -3.2913,-0.07122 -4.25081,1.026057 -0.9377,1.07234 -1.99404,3.725321 -1.75895,5.130284 0.24893,1.487654 3.22475,3.224751 3.22475,3.224751"
       style="fill:none;stroke:#000000;stroke-width:3.80175996;stroke-linecap:butt;stroke-linejoin:round;stroke-miterlimit:4;stroke-dasharray:none;stroke-opacity:1" />
    <path
       style="color:#000000;font-style:normal;font-variant:normal;font-weight:normal;font-stretch:normal;font-size:medium;line-height:normal;font-family:sans-serif;font-variant-ligatures:normal;font-variant-position:normal;font-variant-caps:normal;font-variant-numeric:normal;font-variant-alternates:normal;font-feature-settings:normal;text-indent:0;text-align:start;text-decoration:none;text-decoration-line:none;text-decoration-style:solid;text-decoration-color:#000000;letter-spacing:normal;word-spacing:normal;text-transform:none;writing-mode:lr-tb;direction:ltr;text-orientation:mixed;dominant-baseline:auto;baseline-shift:baseline;text-anchor:start;white-space:normal;shape-padding:0;clip-rule:nonzero;display:inline;overflow:visible;visibility:visible;opacity:1;isolation:auto;mix-blend-mode:normal;color-interpolation:sRGB;color-interpolation-filters:linearRGB;solid-color:#000000;solid-opacity:1;vector-effect:none;fill:#ffffff;fill-opacity:1;fill-rule:nonzero;stroke:none;stroke-width:3.80175996;stroke-linecap:round;stroke-linejoin:round;stroke-miterlimit:4;stroke-dasharray:none;stroke-dashoffset:0;stroke-opacity:1;color-rendering:auto;image-rendering:auto;shape-rendering:auto;text-rendering:auto;enable-background:accumulate"
       d="m 200.07812,63.837891 c -3.26888,-0.21229 -6.06948,1.390288 -8.30468,2.771484 -2.73301,1.688807 -5.72712,4.67169 -8.18164,7.283203 -2.45453,2.611513 -4.30469,4.84961 -4.30469,4.84961 a 1.9010701,1.9010701 0 1 0 2.92969,2.421874 c 0,0 1.7797,-2.151889 4.14453,-4.667968 2.36483,-2.516079 5.38152,-5.398789 7.41015,-6.652344 2.07632,-1.283018 4.26988,-2.327101 6.0586,-2.210938 1.66134,0.107892 3.56886,1.00311 4.42187,2.134766 -0.57485,-0.238663 -1.20328,-0.429156 -1.91015,-0.5 -1.67299,-0.167671 -4.14641,-0.306299 -5.8711,1.666016 -0.74735,0.854664 -1.26054,1.896934 -1.67578,3.044922 -0.41524,1.147988 -0.75351,2.298758 -0.52734,3.65039 0.30807,1.84109 1.49412,2.619312 2.39453,3.339844 0.90041,0.720532 1.74805,1.212891 1.74805,1.212891 a 1.9010701,1.9010701 0 1 0 1.91601,-3.283203 c 0,0 -0.63933,-0.376555 -1.28906,-0.896485 -0.64973,-0.51993 -1.07867,-1.353436 -1.01953,-1 -0.009,-0.05333 0.0649,-0.93264 0.35351,-1.730469 0.28859,-0.797828 0.7706,-1.618262 0.96094,-1.835937 0.19434,-0.22224 1.40313,-0.507812 2.63086,-0.384766 0.17981,0.01802 1.26575,0.415538 2.07813,0.861328 0.81237,0.44579 1.4414,0.871094 1.4414,0.871094 a 1.9010701,1.9010701 0 0 0 2.9668,-1.472656 c 0,0 0.0497,-0.93011 -0.0293,-2.042969 -0.079,-1.112858 -0.10291,-2.409553 -1.07031,-3.726562 -1.74551,-2.376344 -4.58637,-3.528748 -7.27149,-3.703125 z"
       id="path960"
       inkscape:connector-curvature="0" />
    <path
       style="fill:none;stroke:#000000;stroke-width:3.80175996;stroke-linecap:butt;stroke-linejoin:round;stroke-miterlimit:4;stroke-dasharray:none;stroke-opacity:1"
       d="m 208.91697,79.95347 c 0,0 7.25789,-8.784003 12.01953,-11.726365 2.15576,-1.332107 4.6536,-2.656079 7.1824,-2.491852 2.18049,0.141606 4.56963,1.170544 5.86318,2.931591 0.90826,1.236501 0.7329,4.543967 0.7329,4.543967 0,0 -2.7879,-1.890807 -4.39739,-2.052114 -1.45036,-0.145359 -3.2913,-0.07122 -4.25081,1.026057 -0.9377,1.07234 -1.99404,3.725321 -1.75895,5.130284 0.24893,1.487654 3.22475,3.224751 3.22475,3.224751"
       id="path964"
       inkscape:connector-curvature="0"
       sodipodi:nodetypes="cssscsssc" />
    <path
       style="color:#000000;font-style:normal;font-variant:normal;font-weight:normal;font-stretch:normal;font-size:medium;line-height:normal;font-family:sans-serif;font-variant-ligatures:normal;font-variant-position:normal;font-variant-caps:normal;font-variant-numeric:normal;font-variant-alternates:normal;font-feature-settings:normal;text-indent:0;text-align:start;text-decoration:none;text-decoration-line:none;text-decoration-style:solid;text-decoration-color:#000000;letter-spacing:normal;word-spacing:normal;text-transform:none;writing-mode:lr-tb;direction:ltr;text-orientation:mixed;dominant-baseline:auto;baseline-shift:baseline;text-anchor:start;white-space:normal;shape-padding:0;clip-rule:nonzero;display:inline;overflow:visible;visibility:visible;opacity:1;isolation:auto;mix-blend-mode:normal;color-interpolation:sRGB;color-interpolation-filters:linearRGB;solid-color:#000000;solid-opacity:1;vector-effect:none;fill:#ffffff;fill-opacity:1;fill-rule:nonzero;stroke:none;stroke-width:3.80175996;stroke-linecap:round;stroke-linejoin:round;stroke-miterlimit:4;stroke-dasharray:none;stroke-dashoffset:0;stroke-opacity:1;color-rendering:auto;image-rendering:auto;shape-rendering:auto;text-rendering:auto;enable-background:accumulate"
       d="m 228.24219,63.837891 c -3.26889,-0.21229 -6.06949,1.390288 -8.30469,2.771484 -2.73301,1.688807 -5.72711,4.67169 -8.18164,7.283203 -2.45453,2.611513 -4.30469,4.84961 -4.30469,4.84961 a 1.9013145,1.9013145 0 1 0 2.93164,2.421874 c 0,0 1.77775,-2.151889 4.14258,-4.667968 2.36483,-2.516079 5.38152,-5.398789 7.41016,-6.652344 2.07632,-1.283018 4.27183,-2.327101 6.06054,-2.210938 1.66135,0.107892 3.56691,1.00311 4.41993,2.134766 -0.57485,-0.238659 -1.20135,-0.429156 -1.90821,-0.5 -1.67298,-0.167671 -4.14641,-0.306299 -5.87109,1.666016 -0.74736,0.854664 -1.26054,1.896934 -1.67578,3.044922 -0.41524,1.147988 -0.75351,2.298758 -0.52735,3.65039 0.30807,1.84109 1.49217,2.619312 2.39258,3.339844 0.90041,0.720532 1.74805,1.212891 1.74805,1.212891 a 1.9010701,1.9010701 0 1 0 1.91601,-3.283203 c 0,0 -0.63933,-0.376555 -1.28906,-0.896485 -0.64973,-0.51993 -1.07672,-1.353436 -1.01758,-1 -0.009,-0.05333 0.063,-0.93264 0.35157,-1.730469 0.28858,-0.797828 0.77254,-1.618262 0.96289,-1.835937 0.19433,-0.22224 1.40312,-0.507812 2.63086,-0.384766 0.1798,0.01802 1.26379,0.415538 2.07617,0.861328 0.81237,0.44579 1.44336,0.871094 1.44336,0.871094 a 1.9010701,1.9010701 0 0 0 2.96484,-1.472656 c 0,0 0.0517,-0.93011 -0.0273,-2.042969 -0.079,-1.112858 -0.10487,-2.409553 -1.07227,-3.726562 -1.7455,-2.376344 -4.58637,-3.528748 -7.27148,-3.703125 z"
       id="path966"
       inkscape:connector-curvature="0" />
    <path
       style="fill:none;stroke:#ffffff;stroke-width:3.80175996;stroke-linecap:butt;stroke-linejoin:miter;stroke-miterlimit:4;stroke-dasharray:none;stroke-opacity:1"
       d="m 199.36784,80.539791 c 0,0 3.12011,1.515845 4.78036,1.424918 1.7226,-0.09434 4.76877,-2.011241 4.76877,-2.011241"
       id="path968"
       inkscape:connector-curvature="0"
       sodipodi:nodetypes="csc" />
    <path
       sodipodi:nodetypes="csc"
       inkscape:connector-curvature="0"
       id="path970"
       d="m 227.53262,80.539791 c 0,0 3.12011,1.515845 4.78036,1.424918 1.7226,-0.09434 4.76877,-2.011241 4.76877,-2.011241"
       style="fill:none;stroke:#ffffff;stroke-width:3.80175996;stroke-linecap:butt;stroke-linejoin:miter;stroke-miterlimit:4;stroke-dasharray:none;stroke-opacity:1" />
    <path
       style="fill:none;stroke:#ffffff;stroke-width:3.80175996;stroke-linecap:round;stroke-linejoin:round;stroke-miterlimit:4;stroke-dasharray:none;stroke-opacity:1"
       d="m 255.6974,80.539791 c 0,0 3.11762,1.424918 4.78036,1.424918 4.10649,0 6.10116,0.04705 8.04337,-0.49793 2.06844,-0.580406 2.81994,-1.007235 4.34231,-2.523058 1.43089,-1.424735 3.72479,-3.684894 3.72479,-3.684894"
       id="path972"
       inkscape:connector-curvature="0"
       sodipodi:nodetypes="csssc" />
    <path
       style="fill:none;stroke:#ffffff;stroke-width:3.80175996;stroke-linecap:round;stroke-linejoin:miter;stroke-miterlimit:4;stroke-dasharray:none;stroke-opacity:1"
       d="m 172.64706,81.964709 8.10517,-2.011239"
       id="path974"
       inkscape:connector-curvature="0"
       sodipodi:nodetypes="cc" />
    <path
       sodipodi:nodetypes="ccccccccc"
       inkscape:connector-curvature="0"
       id="path1031"
       d="m 31.833295,25.475901 c -0.57192,-0.0036 -1.09611,0.318367 -1.351563,0.830078 l -5,10 c -0.95733,1.810051 5.277307,-1.592078 6.148793,-3.444989 l 0.193004,-2.531573 -0.193004,2.531573 c 0.871485,1.852911 7.492131,5.25504 6.534801,3.444989 l -5,-10 C 32.913017,25.800561 32.398178,25.47973 31.833295,25.475901 Z"
       style="color:#000000;font-style:normal;font-variant:normal;font-weight:normal;font-stretch:normal;font-size:medium;line-height:normal;font-family:sans-serif;font-variant-ligatures:normal;font-variant-position:normal;font-variant-caps:normal;font-variant-numeric:normal;font-variant-alternates:normal;font-feature-settings:normal;text-indent:0;text-align:start;text-decoration:none;text-decoration-line:none;text-decoration-style:solid;text-decoration-color:#000000;letter-spacing:normal;word-spacing:normal;text-transform:none;writing-mode:lr-tb;direction:ltr;text-orientation:mixed;dominant-baseline:auto;baseline-shift:baseline;text-anchor:start;white-space:normal;shape-padding:0;clip-rule:nonzero;display:inline;overflow:visible;visibility:visible;opacity:1;isolation:auto;mix-blend-mode:normal;color-interpolation:sRGB;color-interpolation-filters:linearRGB;solid-color:#000000;solid-opacity:1;vector-effect:none;fill:#ffffff;fill-opacity:1;fill-rule:nonzero;stroke:none;stroke-width:3.80175996;stroke-linecap:round;stroke-linejoin:round;stroke-miterlimit:4;stroke-dasharray:none;stroke-dashoffset:0;stroke-opacity:1;color-rendering:auto;image-rendering:auto;shape-rendering:auto;text-rendering:auto;enable-background:accumulate" />
    <path
       style="color:#000000;font-style:normal;font-variant:normal;font-weight:normal;font-stretch:normal;font-size:medium;line-height:normal;font-family:sans-serif;font-variant-ligatures:normal;font-variant-position:normal;font-variant-caps:normal;font-variant-numeric:normal;font-variant-alternates:normal;font-feature-settings:normal;text-indent:0;text-align:start;text-decoration:none;text-decoration-line:none;text-decoration-style:solid;text-decoration-color:#000000;letter-spacing:normal;word-spacing:normal;text-transform:none;writing-mode:lr-tb;direction:ltr;text-orientation:mixed;dominant-baseline:auto;baseline-shift:baseline;text-anchor:start;white-space:normal;shape-padding:0;clip-rule:nonzero;display:inline;overflow:visible;visibility:visible;opacity:1;isolation:auto;mix-blend-mode:normal;color-interpolation:sRGB;color-interpolation-filters:linearRGB;solid-color:#000000;solid-opacity:1;vector-effect:none;fill:#ffffff;fill-opacity:1;fill-rule:nonzero;stroke:none;stroke-width:3.80175996;stroke-linecap:round;stroke-linejoin:round;stroke-miterlimit:4;stroke-dasharray:none;stroke-dashoffset:0;stroke-opacity:1;color-rendering:auto;image-rendering:auto;shape-rendering:auto;text-rendering:auto;enable-background:accumulate"
       d="m 31.794922,26.390625 a 1.9010701,1.9010701 0 0 0 -1.873047,1.927734 v 53.646485 a 1.901367,1.901367 0 1 0 3.802734,0 V 28.318359 a 1.9010701,1.9010701 0 0 0 -1.929687,-1.927734 z"
       id="path1033"
       inkscape:connector-curvature="0" />
    <path
       style="color:#000000;font-style:normal;font-variant:normal;font-weight:normal;font-stretch:normal;font-size:medium;line-height:normal;font-family:sans-serif;font-variant-ligatures:normal;font-variant-position:normal;font-variant-caps:normal;font-variant-numeric:normal;font-variant-alternates:normal;font-feature-settings:normal;text-indent:0;text-align:start;text-decoration:none;text-decoration-line:none;text-decoration-style:solid;text-decoration-color:#000000;letter-spacing:normal;word-spacing:normal;text-transform:none;writing-mode:lr-tb;direction:ltr;text-orientation:mixed;dominant-baseline:auto;baseline-shift:baseline;text-anchor:start;white-space:normal;shape-padding:0;clip-rule:nonzero;display:inline;overflow:visible;visibility:visible;opacity:1;isolation:auto;mix-blend-mode:normal;color-interpolation:sRGB;color-interpolation-filters:linearRGB;solid-color:#000000;solid-opacity:1;vector-effect:none;fill:#ffffff;fill-opacity:1;fill-rule:nonzero;stroke:none;stroke-width:3.80175996;stroke-linecap:round;stroke-linejoin:round;stroke-miterlimit:4;stroke-dasharray:none;stroke-dashoffset:0;stroke-opacity:1;color-rendering:auto;image-rendering:auto;shape-rendering:auto;text-rendering:auto;enable-background:accumulate"
       d="m 135.8418,-0.40429688 a 1.9010701,1.9010701 0 0 0 -1.65821,0.84375 L 109.17578,37.951172 97.230469,14.056641 A 1.9010701,1.9010701 0 0 0 93.900391,13.927734 L 54.21875,80.064453 H 11.705078 a 1.9010701,1.9010701 0 1 0 0,3.800781 h 43.589844 a 1.9010701,1.9010701 0 0 0 1.628906,-0.921875 L 95.378906,18.853516 107.24023,42.580078 a 1.9010701,1.9010701 0 0 0 3.28321,0.203125 L 135.45703,5.3828125 170.91992,82.755859 A 1.9010701,1.9010701 0 1 0 174.375,81.171875 L 137.49219,0.70117188 a 1.9010701,1.9010701 0 0 0 -1.65039,-1.10546876 z"
       id="path1035"
       inkscape:connector-curvature="0" />
    <path
       sodipodi:nodetypes="ccccccccc"
       inkscape:connector-curvature="0"
       id="path1037"
       d="m 11.675246,55.04549 c -0.57192,-0.0036 -1.09611,0.318367 -1.351563,0.830078 l -5,10 c -0.95733,1.810051 5.510714,-2.175594 6.382199,-4.028505 l -0.0404,-1.948057 0.0404,1.948057 c 0.871486,1.852911 7.258725,5.838556 6.301395,4.028505 l -5,-10 C 12.75497,55.37015 12.240131,55.049319 11.675248,55.04549 Z"
       style="color:#000000;font-style:normal;font-variant:normal;font-weight:normal;font-stretch:normal;font-size:medium;line-height:normal;font-family:sans-serif;font-variant-ligatures:normal;font-variant-position:normal;font-variant-caps:normal;font-variant-numeric:normal;font-variant-alternates:normal;font-feature-settings:normal;text-indent:0;text-align:start;text-decoration:none;text-decoration-line:none;text-decoration-style:solid;text-decoration-color:#000000;letter-spacing:normal;word-spacing:normal;text-transform:none;writing-mode:lr-tb;direction:ltr;text-orientation:mixed;dominant-baseline:auto;baseline-shift:baseline;text-anchor:start;white-space:normal;shape-padding:0;clip-rule:nonzero;display:inline;overflow:visible;visibility:visible;opacity:1;isolation:auto;mix-blend-mode:normal;color-interpolation:sRGB;color-interpolation-filters:linearRGB;solid-color:#000000;solid-opacity:1;vector-effect:none;fill:#ffffff;fill-opacity:1;fill-rule:nonzero;stroke:none;stroke-width:3.80175996;stroke-linecap:round;stroke-linejoin:round;stroke-miterlimit:4;stroke-dasharray:none;stroke-dashoffset:0;stroke-opacity:1;color-rendering:auto;image-rendering:auto;shape-rendering:auto;text-rendering:auto;enable-background:accumulate" />
    <path
       style="color:#000000;font-style:normal;font-variant:normal;font-weight:normal;font-stretch:normal;font-size:medium;line-height:normal;font-family:sans-serif;font-variant-ligatures:normal;font-variant-position:normal;font-variant-caps:normal;font-variant-numeric:normal;font-variant-alternates:normal;font-feature-settings:normal;text-indent:0;text-align:start;text-decoration:none;text-decoration-line:none;text-decoration-style:solid;text-decoration-color:#000000;letter-spacing:normal;word-spacing:normal;text-transform:none;writing-mode:lr-tb;direction:ltr;text-orientation:mixed;dominant-baseline:auto;baseline-shift:baseline;text-anchor:start;white-space:normal;shape-padding:0;clip-rule:nonzero;display:inline;overflow:visible;visibility:visible;opacity:1;isolation:auto;mix-blend-mode:normal;color-interpolation:sRGB;color-interpolation-filters:linearRGB;solid-color:#000000;solid-opacity:1;vector-effect:none;fill:#ffffff;fill-opacity:1;fill-rule:nonzero;stroke:none;stroke-width:3.80175996;stroke-linecap:round;stroke-linejoin:round;stroke-miterlimit:4;stroke-dasharray:none;stroke-dashoffset:0;stroke-opacity:1;color-rendering:auto;image-rendering:auto;shape-rendering:auto;text-rendering:auto;enable-background:accumulate"
       d="m 11.715646,45.593547 c -0.57192,-0.0036 -1.09611,0.318367 -1.351563,0.830078 l -5,10 c -0.95733,1.810051 5.510714,-2.175594 6.382199,-4.028505 l -0.0404,-1.948057 0.0404,1.948057 c 0.871486,1.852911 7.258725,5.838556 6.301395,4.028505 l -5,-10 C 12.79537,45.918207 12.280531,45.597376 11.715648,45.593547 Z"
       id="path1039"
       inkscape:connector-curvature="0"
       sodipodi:nodetypes="ccccccccc" />
    <path
       sodipodi:nodetypes="ccccccccc"
       inkscape:connector-curvature="0"
       id="path1041"
       d="m 11.715646,35.534724 c -0.57192,-0.0036 -1.09611,0.318367 -1.351563,0.830078 l -5,10 c -0.95733,1.810051 5.510714,-2.175594 6.382199,-4.028505 l -0.0404,-1.948057 0.0404,1.948057 c 0.871486,1.852911 7.258725,5.838556 6.301395,4.028505 l -5,-10 C 12.79537,35.859384 12.280531,35.538553 11.715648,35.534724 Z"
       style="color:#000000;font-style:normal;font-variant:normal;font-weight:normal;font-stretch:normal;font-size:medium;line-height:normal;font-family:sans-serif;font-variant-ligatures:normal;font-variant-position:normal;font-variant-caps:normal;font-variant-numeric:normal;font-variant-alternates:normal;font-feature-settings:normal;text-indent:0;text-align:start;text-decoration:none;text-decoration-line:none;text-decoration-style:solid;text-decoration-color:#000000;letter-spacing:normal;word-spacing:normal;text-transform:none;writing-mode:lr-tb;direction:ltr;text-orientation:mixed;dominant-baseline:auto;baseline-shift:baseline;text-anchor:start;white-space:normal;shape-padding:0;clip-rule:nonzero;display:inline;overflow:visible;visibility:visible;opacity:1;isolation:auto;mix-blend-mode:normal;color-interpolation:sRGB;color-interpolation-filters:linearRGB;solid-color:#000000;solid-opacity:1;vector-effect:none;fill:#ffffff;fill-opacity:1;fill-rule:nonzero;stroke:none;stroke-width:3.80175996;stroke-linecap:round;stroke-linejoin:round;stroke-miterlimit:4;stroke-dasharray:none;stroke-dashoffset:0;stroke-opacity:1;color-rendering:auto;image-rendering:auto;shape-rendering:auto;text-rendering:auto;enable-background:accumulate" />
    <path
       style="color:#000000;font-style:normal;font-variant:normal;font-weight:normal;font-stretch:normal;font-size:medium;line-height:normal;font-family:sans-serif;font-variant-ligatures:normal;font-variant-position:normal;font-variant-caps:normal;font-variant-numeric:normal;font-variant-alternates:normal;font-feature-settings:normal;text-indent:0;text-align:start;text-decoration:none;text-decoration-line:none;text-decoration-style:solid;text-decoration-color:#000000;letter-spacing:normal;word-spacing:normal;text-transform:none;writing-mode:lr-tb;direction:ltr;text-orientation:mixed;dominant-baseline:auto;baseline-shift:baseline;text-anchor:start;white-space:normal;shape-padding:0;clip-rule:nonzero;display:inline;overflow:visible;visibility:visible;opacity:1;isolation:auto;mix-blend-mode:normal;color-interpolation:sRGB;color-interpolation-filters:linearRGB;solid-color:#000000;solid-opacity:1;vector-effect:none;fill:#ffffff;fill-opacity:1;fill-rule:nonzero;stroke:none;stroke-width:3.80175996;stroke-linecap:round;stroke-linejoin:round;stroke-miterlimit:4;stroke-dasharray:none;stroke-dashoffset:0;stroke-opacity:1;color-rendering:auto;image-rendering:auto;shape-rendering:auto;text-rendering:auto;enable-background:accumulate"
       d="m 11.677734,36.449219 a 1.9010701,1.9010701 0 0 0 -1.8730465,1.927734 v 43.587891 a 1.9013673,1.9013673 0 1 0 3.8027345,0 V 38.376953 a 1.9010701,1.9010701 0 0 0 -1.929688,-1.927734 z"
       id="path1043"
       inkscape:connector-curvature="0" />
    <path
       style="color:#000000;font-style:normal;font-variant:normal;font-weight:normal;font-stretch:normal;font-size:medium;line-height:normal;font-family:sans-serif;font-variant-ligatures:normal;font-variant-position:normal;font-variant-caps:normal;font-variant-numeric:normal;font-variant-alternates:normal;font-feature-settings:normal;text-indent:0;text-align:start;text-decoration:none;text-decoration-line:none;text-decoration-style:solid;text-decoration-color:#000000;letter-spacing:normal;word-spacing:normal;text-transform:none;writing-mode:lr-tb;direction:ltr;text-orientation:mixed;dominant-baseline:auto;baseline-shift:baseline;text-anchor:start;white-space:normal;shape-padding:0;clip-rule:nonzero;display:inline;overflow:visible;visibility:visible;opacity:1;isolation:auto;mix-blend-mode:normal;color-interpolation:sRGB;color-interpolation-filters:linearRGB;solid-color:#000000;solid-opacity:1;vector-effect:none;fill:#ffffff;fill-opacity:1;fill-rule:nonzero;stroke:none;stroke-width:3.80175996;stroke-linecap:round;stroke-linejoin:round;stroke-miterlimit:4;stroke-dasharray:none;stroke-dashoffset:0;stroke-opacity:1;color-rendering:auto;image-rendering:auto;shape-rendering:auto;text-rendering:auto;enable-background:accumulate"
       d="m 289.91406,30.917969 a 1.9010701,1.9010701 0 0 0 -1.46679,0.802734 l -13.41211,18.970703 a 1.9010701,1.9010701 0 0 0 -0.34766,1.097656 v 23.470704 a 1.9010701,1.9010701 0 1 0 3.80078,0 V 52.392578 L 290,36.109375 301.51172,52.392578 v 29.572266 a 1.9010701,1.9010701 0 0 0 1.90039,1.90039 h 30.17578 a 1.9010701,1.9010701 0 1 0 0,-3.800781 H 305.3125 V 51.789062 a 1.9010701,1.9010701 0 0 0 -0.34766,-1.097656 L 291.55273,31.720703 a 1.9010701,1.9010701 0 0 0 -1.63867,-0.802734 z"
       id="path4734"
       inkscape:connector-curvature="0" />
    <path
       style="color:#000000;font-style:normal;font-variant:normal;font-weight:normal;font-stretch:normal;font-size:medium;line-height:normal;font-family:sans-serif;font-variant-ligatures:normal;font-variant-position:normal;font-variant-caps:normal;font-variant-numeric:normal;font-variant-alternates:normal;font-feature-settings:normal;text-indent:0;text-align:start;text-decoration:none;text-decoration-line:none;text-decoration-style:solid;text-decoration-color:#000000;letter-spacing:normal;word-spacing:normal;text-transform:none;writing-mode:lr-tb;direction:ltr;text-orientation:mixed;dominant-baseline:auto;baseline-shift:baseline;text-anchor:start;white-space:normal;shape-padding:0;clip-rule:nonzero;display:inline;overflow:visible;visibility:visible;opacity:1;isolation:auto;mix-blend-mode:normal;color-interpolation:sRGB;color-interpolation-filters:linearRGB;solid-color:#000000;solid-opacity:1;vector-effect:none;fill:#ffffff;fill-opacity:1;fill-rule:nonzero;stroke:none;stroke-width:3.80175996;stroke-linecap:round;stroke-linejoin:round;stroke-miterlimit:4;stroke-dasharray:none;stroke-dashoffset:0;stroke-opacity:1;color-rendering:auto;image-rendering:auto;shape-rendering:auto;text-rendering:auto;enable-background:accumulate"
       d="m 336.42998,81.974469 c 0.004,-0.57192 -0.31836,-1.09611 -0.83007,-1.35156 l -10,-5 c -1.81005,-0.95733 2.17559,5.51071 4.0285,6.3822 l 1.94806,-0.0404 -1.94806,0.0404 c -1.85291,0.87148 -5.83855,7.25872 -4.0285,6.30139 l 10,-5 c 0.50541,-0.25231 0.82625,-0.76715 0.83007,-1.33203 z"
       id="path4736"
       inkscape:connector-curvature="0"
       sodipodi:nodetypes="ccccccccc" />
    <path
       style="fill:none;stroke:#ffffff;stroke-width:3.80176;stroke-linecap:round;stroke-linejoin:miter;stroke-opacity:1;stroke-miterlimit:4;stroke-dasharray:none"
       d="m 108.94117,41.729416 6.70588,16.094118"
       id="path4822"
       inkscape:connector-curvature="0" />
  </g>
</svg>
